<svg xmlns="http://www.w3.org/2000/svg"
     viewBox="0 0 560 760"
     role="img"
     aria-labelledby="title description">

  <title id="title">
    Stochastic systems, optimal transport, and PDE methods
  </title>

  <desc id="description">
    An abstract mathematical illustration showing interacting probability
    distributions, stochastic trajectories, transport paths, and contour
    surfaces.
  </desc>

  <defs>
    <linearGradient id="blueWash" x1="0" y1="0" x2="1" y2="1">
      <stop offset="0" stop-color="#eef2ff"/>
      <stop offset="1" stop-color="#dce5ff"/>
    </linearGradient>

    <linearGradient id="tealWash" x1="0" y1="1" x2="1" y2="0">
      <stop offset="0" stop-color="#e5f2f2"/>
      <stop offset="1" stop-color="#cce6e7"/>
    </linearGradient>

    <linearGradient id="surfaceWash" x1="0" y1="0" x2="0" y2="1">
      <stop offset="0" stop-color="#6f83e8" stop-opacity=".72"/>
      <stop offset="1" stop-color="#2f4ed8" stop-opacity=".12"/>
    </linearGradient>

    <filter id="softShadow" x="-20%" y="-20%" width="140%" height="140%">
      <feDropShadow
        dx="0"
        dy="10"
        stdDeviation="12"
        flood-color="#24333c"
        flood-opacity=".12"
      />
    </filter>
  </defs>

  <rect width="560" height="760" fill="#ffffff"/>

  <path
    d="M40 126
       C106 47 194 51 250 122
       C301 187 369 203 522 115"
    fill="none"
    stroke="#d9e1fb"
    stroke-width="38"
    stroke-linecap="round"
  />

  <path
    d="M30 572
       C129 493 210 532 276 597
       C349 670 432 650 531 557"
    fill="none"
    stroke="#e4f0f0"
    stroke-width="44"
    stroke-linecap="round"
  />

  <!-- Initial probability cloud -->
  <ellipse
    cx="144"
    cy="192"
    rx="102"
    ry="78"
    fill="url(#blueWash)"
    stroke="#17355d"
    stroke-width="5"
  />

  <g fill="#2f4ed8">
    <circle cx="86" cy="168" r="10"/>
    <circle cx="116" cy="126" r="7"/>
    <circle cx="145" cy="156" r="12"/>
    <circle cx="183" cy="133" r="8"/>
    <circle cx="204" cy="179" r="11"/>
    <circle cx="164" cy="211" r="8"/>
    <circle cx="114" cy="225" r="11"/>
    <circle cx="73" cy="210" r="7"/>
    <circle cx="213" cy="229" r="6"/>
    <circle cx="129" cy="190" r="6"/>
  </g>

  <g fill="#f28c28">
    <circle cx="74" cy="142" r="6"/>
    <circle cx="176" cy="174" r="6"/>
    <circle cx="137" cy="241" r="6"/>
  </g>

  <!-- Transport trajectories -->
  <path
    d="M222 156
       C290 82 354 92 424 169"
    fill="none"
    stroke="#2f4ed8"
    stroke-width="6"
    stroke-linecap="round"
  />

  <path
    d="M225 189
       C304 153 346 160 430 204"
    fill="none"
    stroke="#0f6f72"
    stroke-width="5"
    stroke-linecap="round"
  />

  <path
    d="M219 219
       C292 268 356 267 438 226"
    fill="none"
    stroke="#f28c28"
    stroke-width="5"
    stroke-linecap="round"
  />

  <path
    d="M402 153 L430 169 L416 139"
    fill="none"
    stroke="#2f4ed8"
    stroke-width="6"
    stroke-linecap="round"
    stroke-linejoin="round"
  />

  <path
    d="M409 194 L430 204 L411 216"
    fill="none"
    stroke="#0f6f72"
    stroke-width="5"
    stroke-linecap="round"
    stroke-linejoin="round"
  />

  <path
    d="M412 214 L438 226 L419 242"
    fill="none"
    stroke="#f28c28"
    stroke-width="5"
    stroke-linecap="round"
    stroke-linejoin="round"
  />

  <!-- Target probability cloud -->
  <ellipse
    cx="449"
    cy="201"
    rx="76"
    ry="93"
    fill="url(#tealWash)"
    stroke="#17355d"
    stroke-width="5"
  />

  <g fill="#0f6f72">
    <circle cx="421" cy="146" r="8"/>
    <circle cx="453" cy="127" r="10"/>
    <circle cx="481" cy="154" r="7"/>
    <circle cx="430" cy="188" r="11"/>
    <circle cx="472" cy="194" r="9"/>
    <circle cx="451" cy="226" r="12"/>
    <circle cx="489" cy="245" r="7"/>
    <circle cx="412" cy="250" r="8"/>
  </g>

  <g fill="#f28c28">
    <circle cx="486" cy="178" r="6"/>
    <circle cx="422" cy="221" r="6"/>
    <circle cx="468" cy="267" r="6"/>
  </g>

  <!-- Stochastic trajectories -->
  <g transform="translate(45 315)">
    <path
      d="M0 117
         C24 89 43 144 67 104
         C88 69 109 131 135 88
         C159 50 184 113 207 69
         C236 15 263 105 292 56
         C321 9 357 72 390 43
         C421 17 445 40 468 12"
      fill="none"
      stroke="#2f4ed8"
      stroke-width="5"
      stroke-linecap="round"
    />

    <path
      d="M0 145
         C31 124 56 168 81 139
         C107 107 126 156 153 124
         C181 90 210 150 239 117
         C267 85 291 131 320 102
         C351 72 385 119 414 87
         C438 62 451 69 469 56"
      fill="none"
      stroke="#8ea2ee"
      stroke-width="4"
      stroke-linecap="round"
    />

    <path
      d="M0 168
         C37 157 59 184 91 161
         C120 140 153 179 182 151
         C209 125 239 165 273 138
         C305 112 333 148 368 123
         C402 98 437 123 469 91"
      fill="none"
      stroke="#0f6f72"
      stroke-width="4"
      stroke-linecap="round"
    />

    <g fill="#f28c28">
      <circle cx="67" cy="104" r="6"/>
      <circle cx="207" cy="69" r="6"/>
      <circle cx="320" cy="102" r="6"/>
      <circle cx="414" cy="87" r="6"/>
    </g>
  </g>

  <!-- PDE contour surface -->
  <g transform="translate(61 530)" filter="url(#softShadow)">
    <path
      d="M14 144
         C75 101 106 106 159 130
         C207 152 250 139 290 94
         C330 49 366 49 432 80
         L432 166
         C369 141 328 143 285 181
         C238 222 188 222 141 195
         C97 170 60 171 14 194 Z"
      fill="url(#surfaceWash)"
      stroke="#17355d"
      stroke-width="4"
    />

    <path
      d="M24 155
         C84 119 113 122 162 143
         C211 164 251 151 293 109
         C333 70 372 68 421 91"
      fill="none"
      stroke="#ffffff"
      stroke-width="4"
      opacity=".95"
    />

    <path
      d="M29 175
         C85 145 118 143 162 160
         C207 178 252 170 294 133
         C336 96 373 94 416 111"
      fill="none"
      stroke="#dce5ff"
      stroke-width="4"
    />

    <path
      d="M42 193
         C94 167 123 166 165 181
         C211 197 252 192 298 157
         C339 127 373 121 406 132"
      fill="none"
      stroke="#0f6f72"
      stroke-width="4"
    />

    <path
      d="M295 94
         C316 121 320 151 298 181"
      fill="none"
      stroke="#f28c28"
      stroke-width="5"
      stroke-linecap="round"
    />
  </g>

  <!-- Small structural accents -->
  <g
    fill="none"
    stroke="#8ea2ee"
    stroke-width="3"
    stroke-linecap="round"
  >
    <path d="M47 53 H135"/>
    <path d="M47 68 H108"/>
    <path d="M427 336 H515"/>
    <path d="M454 352 H515"/>
  </g>

  <circle cx="44" cy="53" r="5" fill="#f28c28"/>
  <circle cx="516" cy="336" r="5" fill="#0f6f72"/>
</svg>
